<?xml version="1.0" standalone="no"?>
<!DOCTYPE svg PUBLIC "-//W3C//DTD SVG 20010904//EN"
 "http://www.w3.org/TR/2001/REC-SVG-20010904/DTD/svg10.dtd">
<svg version="1.0" xmlns="http://www.w3.org/2000/svg"
 width="260.000000pt" height="260.000000pt" viewBox="0 0 260.000000 260.000000"
 preserveAspectRatio="xMidYMid meet">
<metadata>
Created by potrace 1.14, written by Peter Selinger 2001-2017
</metadata>
<g transform="translate(0.000000,260.000000) scale(0.100000,-0.100000)"
fill="#000000" stroke="none">
<path d="M430 2488 c0 -62 7 -214 15 -338 37 -564 45 -678 50 -716 4 -31 -2
-58 -25 -115 -43 -105 -61 -206 -63 -339 0 -97 4 -136 31 -247 17 -73 38 -149
46 -168 14 -33 14 -37 -5 -56 -14 -14 -16 -21 -7 -23 7 -3 20 -7 28 -10 8 -3
-101 -5 -242 -3 l-258 3 0 -201 0 -200 210 -3 c155 -2 210 0 210 8 0 7 7 9 16
6 9 -3 36 3 61 14 25 11 52 20 59 20 8 0 14 5 14 11 0 6 7 8 16 5 8 -3 27 3
42 14 20 14 48 20 102 23 72 3 79 1 175 -44 55 -26 124 -55 153 -65 32 -10 60
-26 69 -40 l15 -24 398 0 398 0 6 33 c3 17 17 56 31 85 l24 53 258 -1 c142 -1
277 -1 301 -1 l42 1 0 59 0 59 -63 7 c-35 4 -74 6 -88 5 -66 -6 -259 1 -259 9
0 5 8 12 18 14 13 4 12 5 -5 6 -12 0 -23 -4 -25 -11 -5 -13 -148 -18 -148 -5
0 5 5 18 11 29 11 21 15 21 285 14 l274 -6 0 110 0 110 -137 2 c-76 2 -166 3
-201 3 -68 0 -73 6 -51 62 6 15 22 69 35 118 20 76 23 108 19 200 -2 61 -9
124 -15 140 -7 17 -16 57 -21 90 -13 79 -53 165 -79 172 -19 5 -20 6 -3 19 12
9 15 16 7 21 -7 5 -8 16 -3 28 6 17 8 17 8 3 1 -20 31 -25 31 -6 0 7 5 6 13
-4 8 -11 24 -14 54 -11 24 3 40 9 37 14 -3 5 0 9 5 9 6 0 11 6 11 14 0 10 -17
16 -57 21 -143 14 -134 15 -128 -4 3 -12 0 -18 -10 -18 -8 0 -15 8 -15 17 0 9
-9 27 -20 40 -23 27 -23 23 -10 52 18 42 28 191 15 211 -11 16 -14 10 -24 -50
-14 -85 -16 -133 -7 -155 6 -13 3 -15 -13 -11 -12 3 -21 9 -21 14 0 9 -39 27
-73 34 -9 2 -22 7 -29 11 -7 4 -33 8 -60 8 -26 -1 -45 3 -42 8 7 12 -30 10
-42 -2 -11 -11 -44 -3 -44 11 0 4 10 15 22 23 20 15 17 15 -45 9 -44 -4 -67
-2 -67 4 0 14 24 23 61 23 16 0 29 5 29 11 0 7 -12 9 -30 7 -17 -3 -33 -1 -36
4 -5 8 0 9 59 13 32 2 49 15 21 16 -59 3 -113 2 -139 -4 -18 -4 -37 -1 -50 7
-11 7 -35 12 -54 10 -25 -3 -32 -1 -28 10 8 19 -18 23 -140 22 -57 -1 -103 2
-103 5 0 6 -53 4 -70 -1 -14 -5 -48 -4 -71 1 -29 8 -139 -14 -148 -29 -3 -5
-17 -13 -31 -17 -14 -4 -42 -20 -62 -36 -21 -17 -38 -26 -38 -22 0 4 12 16 28
26 15 11 36 31 47 45 l19 26 -39 -24 c-69 -41 -133 -90 -160 -122 -15 -17 -30
-27 -34 -22 -5 5 -11 88 -15 184 -10 309 -19 451 -28 456 -4 3 -8 -16 -9 -43
-1 -92 2 -240 6 -289 11 -129 15 -355 7 -350 -5 3 -12 67 -16 143 -11 218 -45
773 -52 831 -5 48 -8 52 -31 52 -26 0 -26 0 -20 -65 4 -41 3 -64 -3 -60 -6 3
-10 33 -10 66 l0 59 -35 0 -35 0 0 -112z m90 -48 c0 -5 -4 -10 -10 -10 -5 0
-10 5 -10 10 0 6 5 10 10 10 6 0 10 -4 10 -10z m7 -152 c-3 -8 -6 -5 -6 6 -1
11 2 17 5 13 3 -3 4 -12 1 -19z m1180 -660 c-3 -8 -6 -5 -6 6 -1 11 2 17 5 13
3 -3 4 -12 1 -19z m550 -204 c-3 -3 -12 -4 -19 -1 -8 3 -5 6 6 6 11 1 17 -2
13 -5z m-2200 -980 c-3 -3 -12 -4 -19 -1 -8 3 -5 6 6 6 11 1 17 -2 13 -5z"/>
<path d="M1722 2311 c-1 -44 -6 -91 -12 -106 -6 -16 -7 -33 -1 -42 8 -14 9
-14 15 3 3 10 8 42 11 69 3 28 7 74 11 103 4 40 2 52 -8 52 -10 0 -14 -20 -16
-79z"/>
<path d="M1280 2341 c0 -5 5 -13 10 -16 6 -3 10 -2 10 4 0 5 -4 13 -10 16 -5
3 -10 2 -10 -4z"/>
<path d="M1275 2160 c3 -5 8 -10 11 -10 2 0 4 5 4 10 0 6 -5 10 -11 10 -5 0
-7 -4 -4 -10z"/>
<path d="M2571 2094 c0 -11 3 -14 6 -6 3 7 2 16 -1 19 -3 4 -6 -2 -5 -13z"/>
<path d="M2127 2056 c-4 -10 -7 -25 -6 -34 0 -11 4 -9 10 7 5 13 8 29 6 35 -2
5 -6 2 -10 -8z"/>
<path d="M1676 1924 c-5 -59 -4 -79 6 -85 10 -7 14 5 18 49 8 81 7 105 -6 109
-7 2 -14 -24 -18 -73z"/>
<path d="M2111 1940 c1 -55 1 -55 9 -15 4 22 4 47 -1 55 -5 10 -8 -5 -8 -40z"/>
<path d="M1262 1945 c-1 -14 3 -25 8 -25 6 0 10 11 10 25 0 14 -4 25 -8 25 -4
0 -9 -11 -10 -25z"/>
<path d="M2098 1857 c-5 -10 -8 -31 -8 -45 1 -24 2 -25 11 -9 6 10 9 30 7 45
-2 23 -4 24 -10 9z"/>
<path d="M1755 1630 c-3 -5 -1 -10 4 -10 6 0 11 5 11 10 0 6 -2 10 -4 10 -3 0
-8 -4 -11 -10z"/>
<path d="M2430 1445 c0 -15 6 -25 14 -25 8 0 17 -6 19 -12 4 -10 6 -10 6 0 1
9 12 11 39 7 l37 -6 -32 15 c-18 8 -33 22 -33 31 0 9 -9 15 -25 15 -20 0 -25
-5 -25 -25z"/>
<path d="M2392 1444 c-7 -8 -8 -14 -3 -14 10 0 25 19 20 25 -2 1 -10 -3 -17
-11z"/>
<path d="M2500 1445 c7 -8 22 -15 34 -15 21 1 21 1 2 15 -27 21 -53 20 -36 0z"/>
<path d="M2575 1440 c-19 -8 -19 -9 3 -9 12 -1 22 4 22 9 0 6 -1 10 -2 9 -2 0
-12 -4 -23 -9z"/>
<path d="M2426 1324 c-9 -23 -7 -44 3 -44 5 0 9 14 9 30 -1 34 -3 37 -12 14z"/>
<path d="M2415 1261 c-3 -6 -4 -15 -1 -20 4 -5 2 -11 -4 -13 -5 -1 -12 -18
-16 -35 -5 -26 -3 -33 8 -33 11 0 17 15 22 51 7 51 4 70 -9 50z"/>
<path d="M2390 1121 c0 -5 -3 -16 -6 -25 -3 -9 -2 -16 4 -16 5 0 12 11 14 25
3 14 1 25 -3 25 -5 0 -9 -4 -9 -9z"/>
<path d="M2055 330 c4 -6 11 -8 16 -5 14 9 11 15 -7 15 -8 0 -12 -5 -9 -10z"/>
<path d="M2110 332 c0 -4 9 -8 20 -9 11 -1 18 2 15 8 -7 11 -35 12 -35 1z"/>
<path d="M2268 323 c12 -2 30 -2 40 0 9 3 -1 5 -23 4 -22 0 -30 -2 -17 -4z"/>
</g>
</svg>
